<svg width="212" height="128" viewBox="0 0 212 128" fill="none" xmlns="http://www.w3.org/2000/svg">
<path fill-rule="evenodd" clip-rule="evenodd" d="M212 36V116.4C212 121.8 207.5 127.9 202 127.9H10C4.5 127.9 0 121.9 0 116.4V36H6.6V116.7C6.6 120.2 7.8 121.4 11.4 121.4H200.5C204.1 121.4 205.3 120.2 205.3 116.7L205.4 36H212Z" fill="#2E333A"/>
<path d="M203.2 10H8.8C4.8 10 0 16.4 0 20.2V36.2H212V20.2C212 16.4 207.2 10 203.2 10ZM29.9 32.9C25.3 32.9 21.6 29.2 21.6 24.7C21.6 20.2 25.3 16.5 29.9 16.5C34.5 16.5 38.2 20.2 38.2 24.7C38.2 29.3 34.5 32.9 29.9 32.9ZM182.1 32.9C177.5 32.9 173.8 29.2 173.8 24.7C173.8 20.2 177.5 16.5 182.1 16.5C186.7 16.5 190.4 20.2 190.4 24.7C190.4 29.3 186.7 32.9 182.1 32.9Z" fill="#2E333A"/>
<path d="M29.9 0C27.2 0 26.6 2.1 26.6 4.6V23.2C26.6 25.8 27.2 27.8 29.9 27.8C32.6 27.8 33.2 25.7 33.2 23.2V4.7C33.2 2.1 32.7 0 29.9 0ZM182.1 0C179.4 0 178.8 2.1 178.8 4.6V23.2C178.8 25.8 179.4 27.8 182.1 27.8C184.8 27.8 185.4 25.7 185.4 23.2V4.7C185.4 2.1 184.8 0 182.1 0Z" fill="#2E333A"/>
<path d="M103 20L108 20L108 128L103 128L103 20Z" fill="#2E333A"/>
<rect x="15" y="50" width="14.3571" height="12" fill="#2E333A"/>
<rect x="116" y="50" width="82" height="12" fill="#2E333A"/>
<rect x="116" y="68" width="82" height="12" fill="#2E333A"/>
<rect x="116" y="86" width="82" height="12" fill="#2E333A"/>
<rect x="116" y="104" width="82" height="12" fill="#2E333A"/>
<rect x="36.3571" y="50" width="14.3571" height="12" fill="#2E333A"/>
<rect x="57.7142" y="50" width="14.3571" height="12" fill="#2E333A"/>
<rect x="79.0714" y="50" width="14.3571" height="12" fill="#2E333A"/>
<rect x="15" y="104" width="14.3571" height="12" fill="#2E333A"/>
<rect x="36.3571" y="104" width="14.3571" height="12" fill="#2E333A"/>
<rect x="57.7142" y="104" width="14.3571" height="12" fill="#2E333A"/>
<rect x="79.0714" y="104" width="14.3571" height="12" fill="#2E333A"/>
<rect x="15" y="68" width="14.3571" height="12" fill="#2E333A"/>
<rect x="36.3571" y="68" width="14.3571" height="12" fill="#2E333A"/>
<rect x="57.7142" y="68" width="14.3571" height="12" fill="#2E333A"/>
<rect x="79.0714" y="68" width="14.3571" height="12" fill="#2E333A"/>
<rect x="15" y="86" width="14.3571" height="12" fill="#2E333A"/>
<rect x="36.3571" y="86" width="14.3571" height="12" fill="#2E333A"/>
<rect x="57.7142" y="86" width="14.3571" height="12" fill="#2E333A"/>
<rect x="79.0714" y="86" width="14.3571" height="12" fill="#2E333A"/>
</svg>
